<?xml version='1.0' encoding='utf-8'?>
<svg xmlns="http://www.w3.org/2000/svg" clip-rule="evenodd" fill-rule="evenodd" image-rendering="optimizeQuality" shape-rendering="geometricPrecision" text-rendering="geometricPrecision" version="1.1" viewBox="0 0 11647 11647">
 <defs>
  <style type="text/css">
    .fil0 {fill:none}
    .fil12 {fill:#220202}
    .fil2 {fill:#5AB85A}
    .fil15 {fill:#6E4231}
    .fil1 {fill:#73E673}
    .fil21 {fill:#824407}
    .fil18 {fill:#880302}
    .fil20 {fill:#984E06}
    .fil23 {fill:#9CB006}
    .fil16 {fill:#A9604A}
    .fil22 {fill:#AFC403}
    .fil24 {fill:#D90404}
    .fil10 {fill:#DB4711}
    .fil14 {fill:#DE0404}
    .fil13 {fill:#E0D0C7}
    .fil11 {fill:#E84B12}
    .fil4 {fill:#ED6148}
    .fil8 {fill:#EDE1DA}
    .fil7 {fill:#F00504}
    .fil5 {fill:#F2A499}
    .fil6 {fill:#F9AF5C}
    .fil25 {fill:#FACBCB}
    .fil9 {fill:#FD5314}
    .fil3 {fill:#FEF1EA}
    .fil17 {fill:#6E4231;fill-rule:nonzero}
    .fil19 {fill:#F19167;fill-rule:nonzero}
  </style>
 </defs>
  <polygon class="fil0" points="0 0 11647 0 11647 11647 0 11647"/>
   <polygon class="fil1" points="5026 9529 6621 9529 7638 9529 8452 10824 7638 10824 6609 10824 5038 10824 4009 10824 3195 10824 4009 9529"/>
   <path class="fil2" d="m6473 9529h596l-45 30-631 415-28 18-255 168c-23 30-61 63-112 96l-3 2c-31 21-66 41-104 60-195 30-390 48-568 48s-320-18-422-48c20-19 46-39 76-60l3-2c191-125 516-230 781-259l8-5 28-18 676-445zm715 0h450l43 68-573 377-28 18-7 5c179 29 184 134-6 259l-3 2c-32 21-67 41-104 60-196 30-390 48-568 48s-320-18-423-48c21-19 46-39 77-60l3-2c51-33 113-66 180-96l255-168 28-18 631-415 45-30z"/>
   <polygon class="fil3" points="4307 2059 5359 2059 5359 3698 4307 3698"/>
    <polygon class="fil3" points="5764 8504 5168 8504 5168 10148 5764 10148"/>
    <polygon class="fil4" points="5168 10148 5764 10148 5764 9707 5168 9707"/>
    <polygon class="fil5" points="5764 9707 5168 9707 5168 9670 5764 9670"/>
    <path class="fil6" d="m5289 10295c184 0 357-21 509-58 0 40-5 80-13 118-150 61-318 95-496 95s-346-34-495-95c-9-38-13-78-13-118 152 37 325 58 508 58z"/>
    <path class="fil7" d="m5798 10237c-152 37-325 58-509 58-183 0-356-21-508-58v-4c0-294 227-532 508-532s509 238 509 532v4z"/>
    <polygon class="fil3" points="5883 8504 6479 8504 6479 10148 5883 10148"/>
    <polygon class="fil4" points="6479 10148 5883 10148 5883 9707 6479 9707"/>
    <polygon class="fil5" points="5883 9707 6479 9707 6479 9670 5883 9670"/>
    <path class="fil6" d="m6358 10295c-184 0-356-21-509-58 0 40 5 80 13 118 150 61 318 95 496 95s346-34 495-95c9-38 13-78 14-118-153 37-326 58-509 58z"/>
    <path class="fil7" d="m5849 10237c153 37 325 58 509 58 183 0 356-21 509-58v-4c0-294-228-532-509-532s-509 238-509 532v4z"/>
    <path class="fil8" d="m5764 8504h-596v262c189 53 388 79 596 77v-339z"/>
    <path class="fil8" d="m5883 8504h596v262c-189 53-388 79-596 77v-339z"/>
   <path class="fil9" d="m5824 7902l-600-27c-230 239-297 493-299 509-14 117 34 196 182 243 225 72 464 103 717 95 252 8 491-23 716-95 148-47 196-126 182-243-2-16-29-182-120-511l-778 29z"/>
   <polygon class="fil10" points="5824 7902 5393 7883 5393 8303 6428 8303 6428 7879"/>
   <path class="fil11" d="m5103 8021c-134 187-177 350-178 363-7 56 1 103 27 143 1-5 3-9 5-13 14-37 24-64 38-82 15-19 35-29 51-29 17-1 32 8 45 21 14 13 27 29 41 38 13 9 28 11 44 6 16-4 34-14 42-27 9-13 9-30 6-62-3-33-10-83-24-126-15-43-38-79-54-106-17-28-27-46-34-74-5-15-8-33-9-52z"/>
   <path class="fil12" d="m3295 4863c511 787 1452 1314 2529 1314l695 455c433-62 891-68 1374-17 268 39 521 31 757-22 213-23 391-76 532-159-110-12-215-132-317-361-113-480-115-936-6-1367-141 139-333 200-507 157-511 787-1452 1314-2528 1314l-696 455c-433-62-891-68-1374-17-268 39-520 31-757-22-213-23-390-76-532-159 110-12 215-132 317-361 113-480 116-936 6-1367 141 139 333 200 507 157z"/>
   <polygon class="fil13" points="5495 6062 6171 6062 6171 6560 5495 6560"/>
   <path class="fil3" d="m5104 7085c-53 26-76 57-103 107-26 51-55 120-74 173-18 53-26 89-36 130-10 42-24 89-38 139-14 51-29 104-37 140-9 36-11 54-15 70s-11 30-20 46-20 34-36 57c-17 22-39 49-65 86s-58 83-90 123c-33 40-68 74-87 103s-22 52-27 69c-4 16-11 26-14 34-3 9-2 18 7 23s26 7 39 7c12-1 19-4 23 3 4 6 4 21 2 39s-6 38-7 51 1 17 12 16c11 0 31-7 41-7 11 0 11 7 13 24 1 17 3 46 6 66 4 20 8 32 19 39 10 7 26 8 39 2 14-5 24-16 33-26 10-9 18-16 23-10 6 7 8 27 14 47s16 39 34 40 43-16 60-36c16-20 24-42 38-78 13-36 33-85 48-123 14-37 24-64 38-82 15-19 35-29 52-29 17-1 31 9 44 21 14 13 27 29 41 38s28 11 44 7c16-5 34-15 43-28s9-29 5-62c-3-33-10-83-24-126-15-43-37-79-54-106-16-28-27-46-34-74-8-28-13-65-10-103 3-39 13-79 34-143 20-64 50-150 76-221s48-125 74-172 56-167 86-202c29-35 59 16 59-20 0-37-28-78-84-88-55-11-138 10-192 36z"/>
   <path class="fil9" d="m5389 7101h37v-150h-344l-59-102-71 104c-34 7-60 37-60 73v75l536 82-39-82z"/>
   <path class="fil7" d="m5917 6859c-62-291-93-437-93-437-52-67-177-86-376-55-268 175-445 388-496 586 72 62 178 86 283 125 73 37 51 81 46 163-17 221-40 376-69 465-13 81-10 138 12 169 249 6 370 40 361 102 222-745 332-1118 332-1118z"/>
   <path class="fil14" d="m5917 6859l-36-169-57 9-165 51-26-49-176-32-64 33v1184c135 15 199 45 192 91 222-745 332-1118 332-1118z"/>
   <path class="fil7" d="m5771 6859c63-291 94-437 94-437 52-67 177-86 375-55 268 175 446 388 496 586-71 62-178 86-282 125-73 37-51 81-47 163 18 221 41 376 70 465 13 81 9 138-12 169-250 6-370 40-362 102-221-745-332-1118-332-1118z"/>
   <path class="fil3" d="m8555 4486c100-230 166-477 193-733-841-175-1815-259-2924-253-1109-6-2084 78-2924 253 26 256 92 503 192 733 57 131 125 257 203 377 511 787 1452 1314 2529 1314 1076 0 2017-527 2528-1314 78-120 146-246 203-377z"/>
   <path class="fil3" d="m8796 3774c253 131 337 472 187 762-150 291-476 420-730 289-253-130-337-471-187-762 150-290 477-419 730-289z"/>
   <path class="fil15" d="m7893 4409c0-311-172-564-385-564-212 0-384 253-384 564 0 312 172 564 384 564 213 0 385-252 385-564z"/>
   <path class="fil15" d="m7937 4027c101-93 149-205 108-249-42-45-157-6-258 87-100 93-148 205-107 250s157 6 257-88z"/>
   <path class="fil15" d="m7774 3868c29-98 14-188-33-202s-108 54-137 151c-29 98-14 188 33 202s108-54 137-151z"/>
   <path class="fil3" d="m7732 4060c76 0 138 58 138 131 0 72-62 130-138 130s-137-58-137-130c0-73 61-131 137-131z"/>
   <path class="fil16" d="m6744 3517c507 22 982 67 1424 133-172-239-453-394-770-394-253 0-484 99-654 261z"/>
   <path class="fil17" d="m7476 3605c-24 31-68 36-99 12-30-24-35-69-11-99 51-65 116-113 189-144 73-30 154-42 235-33 81 10 158 40 222 86s117 109 152 183c16 35 1 77-34 94-35 16-77 1-94-34-24-52-61-96-106-129-45-32-98-53-156-60-57-6-114 2-165 24-51 21-97 55-133 100z"/>
   <path class="fil18" d="m6508 3508c207-264 529-433 890-433 438 0 817 249 1005 613 67 11 134 23 199 36 49 2 98 11 146 29 8-83 12-167 12-253 0-1478-1314-2676-2936-2676s-2937 1198-2937 2676c0 86 4 170 13 253 47-18 96-27 145-29 66-13 132-25 199-36 188-364 567-613 1005-613 141 0 277 26 401 73l129-1058 5 1119c86 47 166 104 237 171l-4-886 86 971c13 14 25 29 36 43 222-6 450-9 685-8 234-1 462 2 684 8z"/>
   <path class="fil0" d="m5824 6177c-831-1322-1860-1871-3087-1648 159 484 174 998 45 1544-102 229-207 349-317 361 142 83 319 136 532 159 237 53 489 61 757 22 483-51 941-45 1374 17 464-303 696-455 696-455z"/>
   <path class="fil3" d="m2851 3774c-253 131-337 472-187 762 150 291 477 420 730 289 253-130 337-471 187-762-150-290-476-419-730-289z"/>
   <path class="fil15" d="m3754 4409c0-311 173-564 385-564s384 253 384 564c0 312-172 564-384 564s-385-252-385-564z"/>
   <path class="fil15" d="m3710 4027c-101-93-149-205-108-249 42-45 157-6 258 87 100 93 149 205 107 250-41 45-157 6-257-88z"/>
   <path class="fil15" d="m3873 3868c-29-98-14-188 33-202s108 54 137 151c29 98 14 188-33 202s-108-54-137-151z"/>
   <path class="fil3" d="m3904 4076c-74 0-134 56-134 126s60 127 134 127c73 0 133-57 133-127s-60-126-133-126z"/>
   <path class="fil19" d="m5824 5555h-2c-122 3-229-14-322-49-90-35-166-89-228-162-18-22-51-25-73-6-21 18-24 51-6 73 74 86 164 150 270 191 105 41 225 59 361 56 135 3 255-15 360-56 107-41 197-105 270-191 18-22 16-55-6-73-22-19-55-16-73 6-62 73-138 127-228 162-92 35-200 52-322 49h-1z"/>
   <path class="fil16" d="m4903 3517c-39 2-79 4-118 6v-102c42 29 81 61 118 96zm-300 16c-395 25-770 64-1124 117 172-239 453-394 770-394 135 0 263 28 378 78l-24 199z"/>
   <path class="fil17" d="m4171 3605c24 31 68 36 99 12 30-24 35-69 11-99-51-65-116-113-189-144-73-30-154-42-235-33-81 10-157 40-222 86-64 46-117 109-152 183-16 35-1 77 34 94 35 16 77 1 94-34 24-52 61-96 106-129 45-32 99-53 156-60 57-6 114 2 165 24 51 21 97 55 133 100z"/>
   <path class="fil0" d="m6356 4231c-33-134-259-237-532-237-274 0-500 103-533 237"/>
   <polygon class="fil20" points="5457 6589 6492 6589 6492 8226 5457 8226"/>
   <polygon class="fil21" points="6492 6800 6492 8226 5804 8226 5457 8152 5457 7831 5714 6634"/>
   <polygon class="fil22" points="5767 6574 5445 8077 6598 8325 6920 6821"/>
   <path class="fil23" d="m6713 7787l57-267c-13-3-25-6-37-9-49-12-90-25-117-36-27-10-41-17-56-32-16-15-33-37-51-64s-37-58-56-91-37-68-53-101-30-63-46-92-34-57-53-78c-18-21-36-36-54-52s-36-34-50-42c-13-8-22-5-31 3s-20 21-28 37c-7 16-13 34-16 56-4 23-6 50-6 71 1 20 4 33 6 46 3 12 5 25 3 32-3 7-9 10-23 6-14-3-35-12-61-25-25-13-54-30-91-41s-82-17-118-18-64 3-85 10-35 17-45 28c-10 10-16 20-17 30-2 9 0 17 4 23 4 7 12 12 16 18s4 13 2 20c-3 8-9 17-16 23s-16 10-22 16c-7 6-11 16-14 27-3 12-5 26 0 39s16 27 25 35c8 9 14 12 19 16 4 4 6 8 4 11-2 4-8 8-19 14-12 6-29 15-36 29-6 15-3 36 5 49 7 14 20 20 33 27 14 7 29 13 40 21 10 7 16 15 17 23 1 7-1 15-9 21-8 5-20 9-23 16s3 18 15 28c11 11 27 22 54 37s63 34 109 50c47 16 102 29 160 34 58 4 117 1 151-3 33-4 39-8 62-14 22-7 60-16 92-21 31-5 56-6 80-2 24 5 47 14 84 28 38 13 88 31 136 46 20 7 40 12 59 18z"/>
   <path class="fil3" d="m7025 7629c6-28 5-52-3-73s-24-40-46-53-50-20-93-30c-43-9-100-21-150-34-49-12-90-25-117-36-27-10-41-18-56-32-16-15-33-37-51-64s-37-58-56-91-37-68-53-101-30-63-46-92-34-57-53-78c-18-21-36-36-54-52s-36-34-50-42c-13-8-22-5-31 3s-20 21-28 37c-7 16-13 34-16 56-4 23-6 50-6 70 1 21 4 34 6 47 3 12 5 25 3 32-3 7-9 10-23 6-14-3-35-12-61-25-25-13-54-30-91-41s-82-17-118-18-64 3-85 10-35 17-45 28c-10 10-16 20-17 30-2 9 0 17 4 23 4 7 12 12 16 18s4 13 2 20c-3 8-9 17-16 23s-16 10-22 16c-7 6-11 16-14 27-3 12-5 25 0 39 5 13 16 26 25 35 8 8 14 12 19 16 4 4 6 8 4 11-2 4-8 8-19 14-12 6-29 15-36 29-6 15-3 35 5 49 7 14 20 20 33 27 14 7 29 13 40 21 10 7 16 15 17 23 1 7-1 15-9 21-8 5-20 9-23 16s3 17 15 28c11 11 27 22 54 37s63 34 109 50c47 16 102 29 160 33 58 5 117 2 151-2 33-4 39-8 62-15 22-6 60-15 92-20 31-5 56-6 80-2 24 5 47 14 84 28 38 13 88 31 136 46 47 15 91 27 126 34s62 10 85 12c24 1 45 2 67-3 21-4 42-13 59-34 16-20 29-50 34-77z"/>
   <path class="fil24" d="m5448 6367c462 315 792 270 723-88-234 54-436 102-624 52-43 46-98 37-99 36z"/>
   <path class="fil7" d="m5451 6367c490 273 744 235 720-88-234 54-487 58-676 8-43 45-44 80-44 80z"/>
   <path class="fil25" d="m4347 5222c142 0 258 105 258 234 0 130-116 235-258 235-143 0-259-105-259-235 0-129 116-234 259-234zm2953 0c143 0 259 105 259 234 0 130-116 235-259 235-142 0-258-105-258-235 0-129 116-234 258-234z"/>
    <path class="fil12" d="m3118 4206c0-625 507-1131 1131-1131 562 0 1029 411 1116 948 22-13 45-25 70-37 105-46 241-75 389-75 147 0 283 29 388 75 25 12 49 24 70 37 87-537 554-948 1116-948 624 0 1131 506 1131 1131 0 624-507 1130-1131 1130-617 0-1118-493-1130-1107-20-34-63-66-123-93-84-37-197-60-321-60-125 0-238 23-322 60-60 27-103 59-123 93-12 614-513 1107-1130 1107-624 0-1131-506-1131-1130zm5230 0c0-525-425-950-950-950s-950 425-950 950c0 524 425 949 950 949s950-425 950-949zm-5049 0c0-525 426-950 950-950 525 0 950 425 950 950 0 524-425 949-950 949-524 0-950-425-950-949z"/>
    <path class="fil0" d="m3644 3336c-120 86-212 191-276 317"/>
</svg>